<svg id="Capa_1" enable-background="new 0 0 507.259 507.259" height="512" viewBox="0 0 507.259 507.259" width="512" xmlns="http://www.w3.org/2000/svg" xmlns:xlink="http://www.w3.org/1999/xlink"><linearGradient id="SVGID_1_" gradientUnits="userSpaceOnUse" x1="86.347" x2="440.444" y1="447.831" y2="25.834"><stop offset="0" stop-color="#fff3ee" stop-opacity="0"/><stop offset=".2938" stop-color="#ffeade" stop-opacity=".373"/><stop offset=".7874" stop-color="#ffd6bb"/></linearGradient><g><g><path d="m.156 310.898c-7.915 179.092 288.252 168.163 420.803 136.265 82.467-19.846 87.596-59.472 86.106-144.001-.96-54.486 3.443-198.725-32.004-244.123-54.448-69.733-103.228-25.998-170.656-3.235-86.488 29.197-120.189-22.932-202.476-21.38-120.641 2.278-97.815 186.886-101.773 276.474z" fill="url(#SVGID_1_)"/></g><g><g><path d="m391.185 138.067h-17.158v-66.995c0-5.523-4.477-10-10-10h-314.255c-5.523 0-10 4.477-10 10v143.991c0 5.523 4.477 10 10 10h314.255c5.523 0 10-4.477 10-10v-66.996h17.158c33.414 0 60.598 27.185 60.598 60.599s-27.184 60.598-60.598 60.598h-290.437c-36.379 0-65.976 29.597-65.976 65.976s29.597 65.976 65.976 65.976h62.338v62.864c0 12.129 9.832 21.961 21.961 21.961h126.46c12.129 0 21.961-9.832 21.961-21.961v-137.44c0-6.064-4.916-10.981-10.981-10.981h-148.42c-6.064 0-10.981 4.916-10.981 10.981v64.576h-62.338c-30.865 0-55.976-25.111-55.976-55.976s25.111-55.976 55.976-55.976h290.437c38.928 0 70.598-31.67 70.598-70.599 0-38.927-31.671-70.598-70.598-70.598z" fill="#2626bc" opacity=".1"/><g><g><path d="m364.027 200.063h-314.255c-5.523 0-10-4.477-10-10v-143.991c0-5.523 4.477-10 10-10h314.255c5.523 0 10 4.477 10 10v143.991c0 5.523-4.478 10-10 10z" fill="#6c6cff"/><path d="m161.543 36.072h-111.771c-5.523 0-10 4.477-10 10v143.991c0 5.523 4.477 10 10 10h111.771z" fill="#4d4dff"/><path d="m91.717 36.072h-41.945c-5.523 0-10 4.477-10 10v143.991c0 5.523 4.477 10 10 10h41.945z" fill="#2c27ff"/><path d="m174.067 290.66h148.421c6.064 0 10.981 4.916 10.981 10.981v137.44c0 12.129-9.832 21.961-21.961 21.961h-126.46c-12.129 0-21.961-9.832-21.961-21.961v-137.441c-.001-6.064 4.916-10.98 10.98-10.98z" fill="#fff"/><path d="m308.446 323.133h25.023v9.641h-25.023z" fill="#ff6c6c"/><path d="m308.446 332.774h25.023v34.641h-25.023z" fill="#ffab66"/><path d="m308.446 347.531h25.023v19.884h-25.023z" fill="#ffd6bb"/><path d="m303.446 376.216h-110.337c-2.761 0-5-2.239-5-5v-54.589c0-2.761 2.239-5 5-5h110.337c2.761 0 5 2.239 5 5v54.589c0 2.762-2.239 5-5 5z" fill="#9494ff"/><circle cx="199.91" cy="401.191" fill="#ffab66" r="11.801"/><circle cx="229.473" cy="401.191" fill="#ffab66" r="11.801"/><path d="m296.645 412.991h-21.376c-6.517 0-11.801-5.283-11.801-11.801 0-6.517 5.283-11.801 11.801-11.801h21.376c6.517 0 11.801 5.283 11.801 11.801 0 6.518-5.284 11.801-11.801 11.801z" fill="#ff6c6c"/><g><g><g><path d="m281.866 362.697h-16.213c-2.122 0-4.012-1.339-4.716-3.341s-.068-4.229 1.586-5.558c4.472-3.592 11.381-10.132 12.742-13.426.563-1.362.28-2.571-.173-3.248-.427-.638-1.042-.948-1.881-.948-1.411 0-2.559 1.148-2.559 2.559 0 2.761-2.238 5-5 5s-5-2.239-5-5c0-6.925 5.634-12.559 12.559-12.559 4.188 0 7.903 1.964 10.193 5.389 2.446 3.658 2.858 8.378 1.103 12.626-1.117 2.704-3.485 5.73-6.069 8.506h3.428c2.762 0 5 2.239 5 5s-2.238 5-5 5z" fill="#ebebff"/></g><g><path d="m242.116 362.699c-.625 0-1.262-.118-1.877-.368-2.559-1.038-3.792-3.954-2.754-6.513l7.966-19.642h-8.711c-2.761 0-5-2.239-5-5s2.239-5 5-5h16.134c1.663 0 3.218.827 4.147 2.207.929 1.379 1.111 3.131.486 4.672l-10.757 26.521c-.787 1.944-2.659 3.122-4.634 3.123z" fill="#ebebff"/></g></g><g><path d="m224.966 362.697h-5.537c-2.761 0-5-2.239-5-5s2.239-5 5-5h5.537c2.761 0 5 2.239 5 5s-2.238 5-5 5z" fill="#ebebff"/></g></g><g fill="#fff"><path d="m315.906 111.518v13.099c0 1.547 1.681 2.508 3.014 1.724l11.136-6.55c1.315-.773 1.315-2.675 0-3.448l-11.136-6.55c-1.333-.783-3.014.178-3.014 1.725z"/><path d="m118.934 124.617v-13.099c0-1.547-1.681-2.508-3.014-1.724l-11.136 6.55c-1.315.773-1.315 2.675 0 3.448l11.136 6.55c1.333.783 3.014-.178 3.014-1.725z"/></g></g><g><g><path d="m61.556 64.152c-2.761 0-5-2.239-5-5v-.115c0-2.761 2.239-5 5-5s5 2.239 5 5v.115c0 2.761-2.239 5-5 5z" fill="#4d4dff"/></g><g><path d="m76.453 73.043c-2.761 0-5-2.239-5-5v-.115c0-2.761 2.239-5 5-5s5 2.239 5 5v.115c0 2.761-2.239 5-5 5z" fill="#4d4dff"/></g><g><path d="m61.556 83.81c-2.761 0-5-2.239-5-5v-.115c0-2.761 2.239-5 5-5s5 2.239 5 5v.115c0 2.761-2.239 5-5 5z" fill="#4d4dff"/></g><g><path d="m76.453 92.7c-2.761 0-5-2.239-5-5v-.115c0-2.761 2.239-5 5-5s5 2.239 5 5v.115c0 2.761-2.239 5-5 5z" fill="#4d4dff"/></g><g><path d="m61.556 103.467c-2.761 0-5-2.239-5-5v-.115c0-2.761 2.239-5 5-5s5 2.239 5 5v.115c0 2.762-2.239 5-5 5z" fill="#4d4dff"/></g><g><path d="m76.453 112.358c-2.761 0-5-2.239-5-5v-.115c0-2.761 2.239-5 5-5s5 2.239 5 5v.115c0 2.761-2.239 5-5 5z" fill="#4d4dff"/></g><g><g><path d="m61.556 123.125c-2.761 0-5-2.239-5-5v-.115c0-2.761 2.239-5 5-5s5 2.239 5 5v.115c0 2.761-2.239 5-5 5z" fill="#4d4dff"/></g><g><path d="m76.453 132.015c-2.761 0-5-2.239-5-5v-.115c0-2.761 2.239-5 5-5s5 2.239 5 5v.115c0 2.762-2.239 5-5 5z" fill="#4d4dff"/></g></g><g><g><path d="m61.556 142.783c-2.761 0-5-2.239-5-5v-.115c0-2.761 2.239-5 5-5s5 2.239 5 5v.115c0 2.761-2.239 5-5 5z" fill="#4d4dff"/></g></g><g><path d="m76.453 151.673c-2.761 0-5-2.239-5-5v-.115c0-2.761 2.239-5 5-5s5 2.239 5 5v.115c0 2.761-2.239 5-5 5z" fill="#4d4dff"/></g><g><g><path d="m61.556 162.44c-2.761 0-5-2.239-5-5v-.115c0-2.761 2.239-5 5-5s5 2.239 5 5v.115c0 2.762-2.239 5-5 5z" fill="#4d4dff"/></g><g><path d="m76.453 171.331c-2.761 0-5-2.239-5-5v-.115c0-2.761 2.239-5 5-5s5 2.239 5 5v.115c0 2.761-2.239 5-5 5z" fill="#4d4dff"/></g></g><g><g><path d="m61.556 182.098c-2.761 0-5-2.239-5-5v-.115c0-2.761 2.239-5 5-5s5 2.239 5 5v.115c0 2.761-2.239 5-5 5z" fill="#4d4dff"/></g></g></g><path d="m391.184 113.067h-12.158v-66.995c0-8.271-6.729-15-15-15h-314.254c-8.271 0-15 6.729-15 15v143.991c0 8.271 6.729 15 15 15h219.021c2.761 0 5-2.239 5-5s-2.239-5-5-5h-219.021c-2.757 0-5-2.243-5-5v-143.991c0-2.757 2.243-5 5-5h314.255c2.757 0 5 2.243 5 5v66.996h-15.715v-12.555c0-2.761-2.239-5-5-5s-5 2.239-5 5v35.109c0 2.761 2.239 5 5 5s5-2.239 5-5v-12.555h15.715v66.996c0 2.757-2.243 5-5 5h-66.133c-2.761 0-5 2.239-5 5s2.239 5 5 5h66.133c8.271 0 15-6.729 15-15v-66.996h12.158c33.414 0 60.598 27.185 60.598 60.599s-27.184 60.598-60.598 60.598h-290.437c-36.379 0-65.976 29.597-65.976 65.976s29.597 65.976 65.976 65.976h62.338c2.761 0 5-2.239 5-5v-69.576c0-3.298 2.683-5.98 5.98-5.98h148.421c3.298 0 5.98 2.683 5.98 5.98v137.44c0 9.353-7.609 16.961-16.961 16.961h-126.46c-9.352 0-16.961-7.609-16.961-16.961v-38.763c0-2.761-2.239-5-5-5s-5 2.239-5 5v38.763c0 14.867 12.095 26.961 26.961 26.961h126.46c14.866 0 26.961-12.095 26.961-26.961v-137.44c0-8.812-7.169-15.98-15.98-15.98h-148.42c-8.812 0-15.98 7.169-15.98 15.98v64.576h-57.338c-30.865 0-55.976-25.111-55.976-55.976s25.111-55.976 55.976-55.976h290.437c38.928 0 70.598-31.67 70.598-70.599-.001-38.927-31.672-70.598-70.6-70.598z" fill="#00c"/></g></g><path d="m423.899 89.376c-2.761 0-5-2.239-5-5 0-3.492-2.841-6.333-6.333-6.333-2.761 0-5-2.239-5-5s2.239-5 5-5c3.492 0 6.333-2.841 6.333-6.333 0-2.761 2.239-5 5-5s5 2.239 5 5c0 3.492 2.841 6.333 6.333 6.333 2.761 0 5 2.239 5 5s-2.239 5-5 5c-3.492 0-6.333 2.841-6.333 6.333 0 2.761-2.238 5-5 5z" fill="#6c6cff"/><path d="m111.366 458.004c-2.761 0-5-2.239-5-5 0-3.492-2.841-6.333-6.333-6.333-2.761 0-5-2.239-5-5s2.239-5 5-5c3.492 0 6.333-2.841 6.333-6.333 0-2.761 2.239-5 5-5s5 2.239 5 5c0 3.492 2.841 6.333 6.333 6.333 2.761 0 5 2.239 5 5s-2.239 5-5 5c-3.492 0-6.333 2.841-6.333 6.333 0 2.762-2.239 5-5 5z" fill="#6c6cff"/><g fill="#ff9d33"><g><path d="m379.9 317.099c-2.761 0-5-2.239-5-5v-.15c0-2.761 2.239-5 5-5s5 2.239 5 5v.15c0 2.761-2.239 5-5 5z"/><path d="m379.9 344.883c-2.761 0-5-2.239-5-5v-.15c0-2.761 2.239-5 5-5s5 2.239 5 5v.15c0 2.762-2.239 5-5 5z"/></g><g><path d="m367.929 324.009c-.848 0-1.706-.216-2.493-.67l-.13-.075c-2.392-1.379-3.213-4.437-1.833-6.829s4.437-3.213 6.829-1.833l.13.075c2.392 1.379 3.213 4.437 1.833 6.829-.926 1.605-2.607 2.503-4.336 2.503z"/><path d="m391.991 337.901c-.85 0-1.711-.217-2.5-.674l-.13-.075c-2.39-1.384-3.206-4.442-1.822-6.833 1.383-2.388 4.441-3.206 6.833-1.822l.13.075c2.39 1.384 3.206 4.442 1.822 6.833-.928 1.601-2.607 2.496-4.333 2.496z"/></g><g><path d="m367.808 337.901c-1.729 0-3.41-.898-4.336-2.503-1.38-2.392-.559-5.45 1.833-6.829l.13-.075c2.392-1.381 5.449-.559 6.829 1.833s.559 5.45-1.833 6.829l-.13.075c-.786.454-1.645.67-2.493.67z"/><path d="m391.87 324.009c-1.726 0-3.405-.895-4.332-2.496-1.384-2.39-.568-5.449 1.822-6.833l.13-.075c2.392-1.384 5.449-.568 6.833 1.822s.568 5.449-1.822 6.833l-.13.075c-.789.457-1.65.674-2.501.674z"/></g></g><g fill="#ff4d4d"><g><g><path d="m100.033 289.455c-2.761 0-5-2.239-5-5v-.15c0-2.761 2.239-5 5-5s5 2.239 5 5v.15c0 2.761-2.239 5-5 5z"/><path d="m100.033 317.239c-2.761 0-5-2.239-5-5v-.15c0-2.761 2.239-5 5-5s5 2.239 5 5v.15c0 2.761-2.239 5-5 5z"/></g><g><path d="m88.062 296.364c-.85 0-1.711-.217-2.5-.674l-.13-.075c-2.39-1.384-3.206-4.442-1.822-6.833 1.383-2.389 4.441-3.205 6.833-1.822l.13.075c2.39 1.384 3.206 4.442 1.822 6.833-.928 1.601-2.607 2.496-4.333 2.496z"/><path d="m112.124 310.256c-.848 0-1.706-.216-2.493-.67l-.13-.075c-2.392-1.379-3.213-4.437-1.833-6.829 1.379-2.392 4.437-3.214 6.829-1.833l.13.075c2.392 1.379 3.213 4.437 1.833 6.829-.926 1.605-2.607 2.503-4.336 2.503z"/></g><g><path d="m87.942 310.256c-1.726 0-3.405-.895-4.332-2.496-1.384-2.39-.568-5.449 1.822-6.833l.13-.075c2.392-1.384 5.45-.568 6.833 1.822 1.384 2.39.568 5.449-1.822 6.833l-.13.075c-.79.457-1.651.674-2.501.674z"/><path d="m112.003 296.364c-1.729 0-3.41-.898-4.336-2.503-1.38-2.392-.559-5.45 1.833-6.829l.13-.075c2.391-1.381 5.449-.558 6.829 1.833 1.38 2.392.559 5.45-1.833 6.829l-.13.075c-.786.454-1.646.67-2.493.67z"/></g></g><path d="m413.899 383.114c-2.761 0-5-2.239-5-5 0-3.492-2.841-6.333-6.333-6.333-2.761 0-5-2.239-5-5s2.239-5 5-5c3.492 0 6.333-2.841 6.333-6.333 0-2.761 2.239-5 5-5s5 2.239 5 5c0 3.492 2.841 6.333 6.333 6.333 2.761 0 5 2.239 5 5s-2.239 5-5 5c-3.492 0-6.333 2.841-6.333 6.333 0 2.762-2.238 5-5 5z"/></g></g></g></svg>