<svg id="Capa_1" enable-background="new 0 0 512 512" height="512" viewBox="0 0 512 512" width="512" xmlns="http://www.w3.org/2000/svg" xmlns:xlink="http://www.w3.org/1999/xlink"><linearGradient id="SVGID_1_" gradientUnits="userSpaceOnUse" x1="8.753" x2="524.202" y1="401.161" y2="103.566"><stop offset="0" stop-color="#fff" stop-opacity="0"/><stop offset=".2532" stop-color="#eef" stop-opacity=".403"/><stop offset=".629" stop-color="#d9d9ff"/></linearGradient><g><g><path d="m418.32 2.5c-55.666-9.521-178.298 12.183-200.004 105.017-14.431 61.722-14.007 112.075-50.427 113.02-21.67.562-32.97-44.31-62.889-48.001-39.047-4.817-66.145 27.695-83.057 57.138-37.205 64.772-25.571 174.918 23.354 228.632 118.488 130.086 259.197-5.952 319.358-112.309 38.585-68.213 125.637-123.352 143.767-200.248 15.177-64.376-18.503-131.003-90.102-143.249z" fill="url(#SVGID_1_)"/></g><g><path d="m430.761 349.152c.7-22.272 1.067-45.019 1.067-68.152 0-49.25-1.643-96.784-4.689-141.6-.78-11.471-10.309-20.373-21.806-20.373h-298.666c-11.497 0-21.026 8.902-21.806 20.373-3.046 44.816-4.689 92.349-4.689 141.6s1.642 96.784 4.689 141.6c.78 11.471 10.309 20.373 21.806 20.373h224.52c12.411 18.954 33.82 31.485 58.168 31.485 38.38 0 69.494-31.113 69.494-69.494 0-22.865-11.046-43.147-28.088-55.812z" fill="#2626bc" opacity=".1"/><path d="m405.333 94.028c11.497 0 21.026 8.902 21.806 20.373 3.046 44.816 4.689 92.349 4.689 141.6s-1.642 96.784-4.689 141.6c-.78 11.471-10.309 20.373-21.806 20.373h-298.666c-11.497 0-21.026-8.902-21.806-20.373-3.046-44.816-4.689-92.349-4.689-141.6s1.642-96.784 4.689-141.6c.78-11.471 10.309-20.373 21.806-20.373z" fill="#ebebff"/><path d="m307.355 172.225h-102.71c-5.523 0-10-4.477-10-10v-58.197c0-5.523 4.477-10 10-10h102.71c5.523 0 10 4.477 10 10v58.197c0 5.523-4.477 10-10 10z" fill="#ff9d33"/><path d="m239.644 227.428v130.346c0 15.145-12.277 27.422-27.422 27.422h-71.04c-13.698 0-24.978-10.743-25.661-24.424-1.71-34.229-2.571-69.287-2.571-104.772s.861-70.543 2.571-104.772c.683-13.681 11.964-24.424 25.661-24.424 14.186 0 25.686 11.5 25.686 25.686v21.83c0 14.186 11.5 25.686 25.686 25.686h19.668c15.145 0 27.422 12.277 27.422 27.422z" fill="#6c6cff"/><path d="m399.05 256c0 35.485-.861 70.543-2.571 104.772-.683 13.681-11.964 24.424-25.661 24.424h-71.04c-15.145 0-27.422-12.277-27.422-27.422v-130.346c0-15.145 12.277-27.422 27.422-27.422h19.668c14.186 0 25.686-11.5 25.686-25.686v-21.83c0-14.186 11.5-25.686 25.686-25.686 13.698 0 24.978 10.743 25.661 24.424 1.71 34.229 2.571 69.287 2.571 104.772z" fill="#6c6cff"/><g><g><g><g><path d="m149.925 210.647c-2.761 0-5-2.239-5-5v-.115c0-2.761 2.239-5 5-5s5 2.239 5 5v.115c0 2.761-2.239 5-5 5z" fill="#4d4dff"/></g><g><path d="m169.822 224.537c-2.761 0-5-2.239-5-5v-.115c0-2.761 2.239-5 5-5s5 2.239 5 5v.115c0 2.762-2.239 5-5 5z" fill="#4d4dff"/></g><g><path d="m189.718 238.428c-2.761 0-5-2.239-5-5v-.115c0-2.761 2.239-5 5-5s5 2.239 5 5v.115c0 2.761-2.238 5-5 5z" fill="#4d4dff"/></g><g><path d="m209.615 252.318c-2.761 0-5-2.239-5-5v-.115c0-2.761 2.239-5 5-5s5 2.239 5 5v.115c0 2.761-2.238 5-5 5z" fill="#4d4dff"/></g></g><g><g><path d="m149.925 240.305c-2.761 0-5-2.239-5-5v-.115c0-2.761 2.239-5 5-5s5 2.239 5 5v.115c0 2.761-2.239 5-5 5z" fill="#4d4dff"/></g><g><path d="m169.822 254.195c-2.761 0-5-2.239-5-5v-.115c0-2.761 2.239-5 5-5s5 2.239 5 5v.115c0 2.761-2.239 5-5 5z" fill="#4d4dff"/></g><g><path d="m189.718 268.085c-2.761 0-5-2.239-5-5v-.115c0-2.761 2.239-5 5-5s5 2.239 5 5v.115c0 2.761-2.238 5-5 5z" fill="#4d4dff"/></g><g><path d="m209.615 281.976c-2.761 0-5-2.239-5-5v-.115c0-2.761 2.239-5 5-5s5 2.239 5 5v.115c0 2.761-2.238 5-5 5z" fill="#4d4dff"/></g></g><g><g><path d="m149.925 269.962c-2.761 0-5-2.239-5-5v-.115c0-2.761 2.239-5 5-5s5 2.239 5 5v.115c0 2.762-2.239 5-5 5z" fill="#4d4dff"/></g><g><path d="m169.822 283.853c-2.761 0-5-2.239-5-5v-.115c0-2.761 2.239-5 5-5s5 2.239 5 5v.115c0 2.761-2.239 5-5 5z" fill="#4d4dff"/></g><g><path d="m189.718 297.743c-2.761 0-5-2.239-5-5v-.115c0-2.761 2.239-5 5-5s5 2.239 5 5v.115c0 2.761-2.238 5-5 5z" fill="#4d4dff"/></g><g><path d="m209.615 311.633c-2.761 0-5-2.239-5-5v-.115c0-2.761 2.239-5 5-5s5 2.239 5 5v.115c0 2.761-2.238 5-5 5z" fill="#4d4dff"/></g></g><g><g><path d="m149.925 299.62c-2.761 0-5-2.239-5-5v-.115c0-2.761 2.239-5 5-5s5 2.239 5 5v.115c0 2.761-2.239 5-5 5z" fill="#4d4dff"/></g><g><path d="m169.822 313.51c-2.761 0-5-2.239-5-5v-.115c0-2.761 2.239-5 5-5s5 2.239 5 5v.115c0 2.761-2.239 5-5 5z" fill="#4d4dff"/></g><g><path d="m189.718 327.401c-2.761 0-5-2.239-5-5v-.115c0-2.761 2.239-5 5-5s5 2.239 5 5v.115c0 2.761-2.238 5-5 5z" fill="#4d4dff"/></g><g><path d="m209.615 341.291c-2.761 0-5-2.239-5-5v-.115c0-2.761 2.239-5 5-5s5 2.239 5 5v.115c0 2.761-2.238 5-5 5z" fill="#4d4dff"/></g></g><g><g><path d="m149.925 329.278c-2.761 0-5-2.239-5-5v-.115c0-2.761 2.239-5 5-5s5 2.239 5 5v.115c0 2.761-2.239 5-5 5z" fill="#4d4dff"/></g><g><path d="m169.822 343.168c-2.761 0-5-2.239-5-5v-.115c0-2.761 2.239-5 5-5s5 2.239 5 5v.115c0 2.761-2.239 5-5 5z" fill="#4d4dff"/></g><g><path d="m189.718 357.058c-2.761 0-5-2.239-5-5v-.115c0-2.761 2.239-5 5-5s5 2.239 5 5v.115c0 2.761-2.238 5-5 5z" fill="#4d4dff"/></g></g><g><g><path d="m149.925 358.935c-2.761 0-5-2.239-5-5v-.115c0-2.761 2.239-5 5-5s5 2.239 5 5v.115c0 2.761-2.239 5-5 5z" fill="#4d4dff"/></g></g></g><g><g><g><path d="m362.075 210.647c2.761 0 5-2.239 5-5v-.115c0-2.761-2.239-5-5-5s-5 2.239-5 5v.115c0 2.761 2.239 5 5 5z" fill="#4d4dff"/></g><g><path d="m342.178 224.537c2.761 0 5-2.239 5-5v-.115c0-2.761-2.239-5-5-5s-5 2.239-5 5v.115c0 2.762 2.239 5 5 5z" fill="#4d4dff"/></g><g><path d="m322.281 238.428c2.761 0 5-2.239 5-5v-.115c0-2.761-2.239-5-5-5s-5 2.239-5 5v.115c0 2.761 2.239 5 5 5z" fill="#4d4dff"/></g><g><path d="m302.385 252.318c2.761 0 5-2.239 5-5v-.115c0-2.761-2.239-5-5-5s-5 2.239-5 5v.115c0 2.761 2.238 5 5 5z" fill="#4d4dff"/></g></g><g><g><path d="m362.075 240.305c2.761 0 5-2.239 5-5v-.115c0-2.761-2.239-5-5-5s-5 2.239-5 5v.115c0 2.761 2.239 5 5 5z" fill="#4d4dff"/></g><g><path d="m342.178 254.195c2.761 0 5-2.239 5-5v-.115c0-2.761-2.239-5-5-5s-5 2.239-5 5v.115c0 2.761 2.239 5 5 5z" fill="#4d4dff"/></g><g><path d="m322.281 268.085c2.761 0 5-2.239 5-5v-.115c0-2.761-2.239-5-5-5s-5 2.239-5 5v.115c0 2.761 2.239 5 5 5z" fill="#4d4dff"/></g><g><path d="m302.385 281.976c2.761 0 5-2.239 5-5v-.115c0-2.761-2.239-5-5-5s-5 2.239-5 5v.115c0 2.761 2.238 5 5 5z" fill="#4d4dff"/></g></g><g><g><path d="m362.075 269.962c2.761 0 5-2.239 5-5v-.115c0-2.761-2.239-5-5-5s-5 2.239-5 5v.115c0 2.762 2.239 5 5 5z" fill="#4d4dff"/></g><g><path d="m342.178 283.853c2.761 0 5-2.239 5-5v-.115c0-2.761-2.239-5-5-5s-5 2.239-5 5v.115c0 2.761 2.239 5 5 5z" fill="#4d4dff"/></g><g><path d="m322.281 297.743c2.761 0 5-2.239 5-5v-.115c0-2.761-2.239-5-5-5s-5 2.239-5 5v.115c0 2.761 2.239 5 5 5z" fill="#4d4dff"/></g><g><path d="m302.385 311.633c2.761 0 5-2.239 5-5v-.115c0-2.761-2.239-5-5-5s-5 2.239-5 5v.115c0 2.761 2.238 5 5 5z" fill="#4d4dff"/></g></g><g><g><path d="m362.075 299.62c2.761 0 5-2.239 5-5v-.115c0-2.761-2.239-5-5-5s-5 2.239-5 5v.115c0 2.761 2.239 5 5 5z" fill="#4d4dff"/></g><g><path d="m342.178 313.51c2.761 0 5-2.239 5-5v-.115c0-2.761-2.239-5-5-5s-5 2.239-5 5v.115c0 2.761 2.239 5 5 5z" fill="#4d4dff"/></g><g><path d="m322.281 327.401c2.761 0 5-2.239 5-5v-.115c0-2.761-2.239-5-5-5s-5 2.239-5 5v.115c0 2.761 2.239 5 5 5z" fill="#4d4dff"/></g><g><path d="m302.385 341.291c2.761 0 5-2.239 5-5v-.115c0-2.761-2.239-5-5-5s-5 2.239-5 5v.115c0 2.761 2.238 5 5 5z" fill="#4d4dff"/></g></g><g><g><path d="m362.075 329.278c2.761 0 5-2.239 5-5v-.115c0-2.761-2.239-5-5-5s-5 2.239-5 5v.115c0 2.761 2.239 5 5 5z" fill="#4d4dff"/></g><g><path d="m342.178 343.168c2.761 0 5-2.239 5-5v-.115c0-2.761-2.239-5-5-5s-5 2.239-5 5v.115c0 2.761 2.239 5 5 5z" fill="#4d4dff"/></g><g><path d="m322.281 357.058c2.761 0 5-2.239 5-5v-.115c0-2.761-2.239-5-5-5s-5 2.239-5 5v.115c0 2.761 2.239 5 5 5z" fill="#4d4dff"/></g></g><g><g><path d="m362.075 358.935c2.761 0 5-2.239 5-5v-.115c0-2.761-2.239-5-5-5s-5 2.239-5 5v.115c0 2.761 2.239 5 5 5z" fill="#4d4dff"/></g></g></g></g><g><g><g><path d="m286.517 153.887h-16.213c-2.122 0-4.012-1.339-4.716-3.341s-.068-4.229 1.586-5.558c4.472-3.592 11.381-10.132 12.742-13.426.563-1.362.28-2.571-.173-3.248-.427-.638-1.042-.948-1.881-.948-1.411 0-2.559 1.148-2.559 2.559 0 2.761-2.238 5-5 5s-5-2.239-5-5c0-6.925 5.634-12.559 12.559-12.559 4.188 0 7.903 1.964 10.193 5.389 2.446 3.658 2.858 8.378 1.103 12.626-1.117 2.704-3.485 5.73-6.069 8.506h3.428c2.762 0 5 2.239 5 5s-2.239 5-5 5z" fill="#ffd6bb"/></g><g><path d="m246.766 153.889c-.625 0-1.262-.118-1.877-.368-2.559-1.038-3.792-3.954-2.754-6.513l7.966-19.642h-8.711c-2.761 0-5-2.239-5-5s2.239-5 5-5h16.134c1.663 0 3.218.827 4.147 2.207.929 1.379 1.111 3.131.486 4.672l-10.757 26.521c-.787 1.943-2.658 3.122-4.634 3.123z" fill="#ffd6bb"/></g></g><g><path d="m229.617 153.887h-5.537c-2.761 0-5-2.239-5-5s2.239-5 5-5h5.537c2.761 0 5 2.239 5 5s-2.239 5-5 5z" fill="#ffd6bb"/></g></g><g><circle cx="389.355" cy="379.963" fill="#ff4d4d" r="69.494"/><g fill="#00c"><path d="m301.506 412.972h-194.839c-8.832 0-16.219-6.901-16.817-15.711-3.104-45.66-4.677-93.187-4.677-141.261s1.574-95.601 4.677-141.261c.599-8.81 7.986-15.711 16.817-15.711h298.666c8.832 0 16.219 6.901 16.817 15.712 3.104 45.657 4.678 93.184 4.678 141.26 0 12.52-.111 25.296-.331 37.974-.048 2.761 2.151 5.038 4.912 5.085.03 0 .06.001.089.001 2.721 0 4.95-2.182 4.997-4.913.221-12.736.333-25.57.333-38.147 0-48.302-1.582-96.057-4.701-141.938-.953-14.038-12.723-25.034-26.794-25.034h-298.666c-14.071 0-25.84 10.996-26.794 25.033-3.119 45.884-4.701 93.64-4.701 141.939s1.582 96.055 4.701 141.938c.954 14.038 12.723 25.034 26.794 25.034h194.839c2.762 0 5-2.239 5-5s-2.238-5-5-5z"/><path d="m389.354 305.47c-41.075 0-74.493 33.417-74.493 74.494s33.418 74.494 74.493 74.494c41.076 0 74.494-33.417 74.494-74.494s-33.417-74.494-74.494-74.494zm0 138.987c-35.562 0-64.493-28.932-64.493-64.494s28.932-64.494 64.493-64.494c35.563 0 64.494 28.932 64.494 64.494s-28.931 64.494-64.494 64.494z"/></g><path d="m421.691 365.322h-17.695v-17.695c0-5.523-4.477-10-10-10h-9.282c-5.523 0-10 4.477-10 10v17.695h-17.695c-5.523 0-10 4.477-10 10v9.282c0 5.523 4.477 10 10 10h17.695v17.696c0 5.523 4.477 10 10 10h9.282c5.523 0 10-4.477 10-10v-17.695h17.695c5.523 0 10-4.477 10-10v-9.282c0-5.524-4.477-10.001-10-10.001z" fill="#fff"/></g><path d="m302.385 465.791c-2.762 0-5-2.239-5-5 0-3.492-2.841-6.333-6.333-6.333-2.762 0-5-2.239-5-5s2.238-5 5-5c3.492 0 6.333-2.841 6.333-6.333 0-2.761 2.238-5 5-5s5 2.239 5 5c0 3.492 2.841 6.333 6.333 6.333 2.762 0 5 2.239 5 5s-2.238 5-5 5c-3.492 0-6.333 2.841-6.333 6.333 0 2.761-2.239 5-5 5z" fill="#ff9d33"/><path d="m184.718 73.061c-2.761 0-5-2.239-5-5 0-3.492-2.841-6.333-6.333-6.333-2.761 0-5-2.239-5-5s2.239-5 5-5c3.492 0 6.333-2.841 6.333-6.333 0-2.761 2.239-5 5-5s5 2.239 5 5c0 3.492 2.841 6.333 6.333 6.333 2.761 0 5 2.239 5 5s-2.239 5-5 5c-3.492 0-6.333 2.841-6.333 6.333 0 2.761-2.239 5-5 5z" fill="#ff9d33"/><g fill="#6c6cff"><g><path d="m411.146 41.002c-2.762 0-5-2.239-5-5v-.15c0-2.761 2.238-5 5-5s5 2.239 5 5v.15c0 2.761-2.239 5-5 5z"/><path d="m411.146 68.786c-2.762 0-5-2.239-5-5v-.15c0-2.761 2.238-5 5-5s5 2.239 5 5v.15c0 2.761-2.239 5-5 5z"/></g><g><path d="m399.175 47.911c-.846 0-1.702-.215-2.488-.667l-.13-.075c-2.394-1.376-3.218-4.433-1.841-6.827 1.377-2.393 4.432-3.219 6.827-1.841l.13.075c2.394 1.376 3.218 4.433 1.841 6.827-.925 1.608-2.608 2.508-4.339 2.508z"/><path d="m423.236 61.803c-.846 0-1.702-.215-2.488-.667l-.13-.075c-2.394-1.376-3.218-4.433-1.841-6.827 1.377-2.393 4.431-3.219 6.827-1.841l.13.075c2.394 1.376 3.218 4.433 1.841 6.827-.925 1.608-2.607 2.508-4.339 2.508z"/></g><g><path d="m399.055 61.803c-1.731 0-3.414-.9-4.339-2.508-1.377-2.394-.553-5.451 1.841-6.827l.13-.075c2.396-1.378 5.451-.552 6.827 1.841 1.377 2.394.553 5.451-1.841 6.827l-.13.075c-.786.452-1.643.667-2.488.667z"/><path d="m423.116 47.911c-1.731 0-3.414-.9-4.339-2.508-1.377-2.394-.553-5.451 1.841-6.827l.13-.075c2.396-1.377 5.45-.552 6.827 1.841 1.377 2.394.553 5.451-1.841 6.827l-.13.075c-.786.452-1.642.667-2.488.667z"/></g></g><g fill="#ff4d4d"><g><g><path d="m84.526 439.307c-2.761 0-5-2.239-5-5v-.15c0-2.761 2.239-5 5-5s5 2.239 5 5v.15c0 2.761-2.239 5-5 5z"/><path d="m84.526 467.091c-2.761 0-5-2.239-5-5v-.15c0-2.761 2.239-5 5-5s5 2.239 5 5v.15c0 2.761-2.239 5-5 5z"/></g><g><path d="m72.555 446.216c-.85 0-1.711-.217-2.5-.674l-.13-.075c-2.39-1.384-3.206-4.442-1.822-6.833 1.383-2.389 4.441-3.206 6.833-1.822l.13.075c2.39 1.384 3.206 4.442 1.822 6.833-.928 1.601-2.607 2.496-4.333 2.496z"/><path d="m96.617 460.108c-.848 0-1.706-.216-2.493-.67l-.13-.075c-2.392-1.379-3.213-4.437-1.833-6.829s4.437-3.213 6.829-1.833l.13.075c2.392 1.379 3.213 4.437 1.833 6.829-.926 1.605-2.607 2.503-4.336 2.503z"/></g><g><path d="m72.435 460.108c-1.726 0-3.405-.895-4.332-2.496-1.384-2.39-.568-5.449 1.822-6.833l.13-.075c2.392-1.383 5.449-.568 6.833 1.822s.568 5.449-1.822 6.833l-.13.075c-.79.457-1.651.674-2.501.674z"/><path d="m96.497 446.216c-1.729 0-3.41-.898-4.336-2.503-1.38-2.392-.559-5.45 1.833-6.829l.13-.075c2.391-1.381 5.449-.559 6.829 1.833s.559 5.45-1.833 6.829l-.13.075c-.787.454-1.646.67-2.493.67z"/></g></g><path d="m357.075 69.363c-2.762 0-5-2.239-5-5 0-3.492-2.841-6.333-6.333-6.333-2.762 0-5-2.239-5-5s2.238-5 5-5c3.492 0 6.333-2.841 6.333-6.333 0-2.761 2.238-5 5-5s5 2.239 5 5c0 3.492 2.841 6.333 6.333 6.333 2.762 0 5 2.239 5 5s-2.238 5-5 5c-3.492 0-6.333 2.841-6.333 6.333 0 2.761-2.238 5-5 5z"/></g></g></g></svg>