<svg id="Capa_1" enable-background="new 0 0 512 512" height="512" viewBox="0 0 512 512" width="512" xmlns="http://www.w3.org/2000/svg" xmlns:xlink="http://www.w3.org/1999/xlink"><linearGradient id="SVGID_1_" gradientUnits="userSpaceOnUse" x1="0" x2="512" y1="258.737" y2="258.737"><stop offset="0" stop-color="#ffd9d9" stop-opacity="0"/><stop offset=".9981" stop-color="#ffb3b3"/></linearGradient><g><g><path d="m16.074 305.617c18.727 64.003 72.707 194.564 163.922 182.845 91.486-11.755 55.759-129.725 139.508-145.894 36.867-7.118 61.857 56.689 98.806 54.704 47.588-2.557 71.81-49.663 85.108-89.264 28.197-83.968-14.029-226.353-112.858-251.012-86.244-21.519-96.332 83.855-171.322 53.248-42.149-17.203-37.938-68.576-89.272-78.942-155.299-31.359-138.811 189.151-113.892 274.315z" fill="url(#SVGID_1_)"/></g><g><path d="m374.357 490.32h-236.714c-5.523 0-10-4.477-10-10v-313.56c0-5.523 4.477-10 10-10h236.714c5.523 0 10 4.477 10 10v313.56c0 5.523-4.477 10-10 10z" fill="#2626bc" opacity=".1"/><g><path d="m268.282 92.934h-24.564v-28.499c0-6.783 5.499-12.282 12.282-12.282 6.783 0 12.282 5.499 12.282 12.282z" fill="#9494ff"/><path d="m374.357 465.32h-236.714c-5.523 0-10-4.477-10-10v-313.56c0-5.523 4.477-10 10-10h236.714c5.523 0 10 4.477 10 10v313.56c0 5.523-4.477 10-10 10z" fill="#d9d9ff"/><path d="m166.812 279.655h-39.169v-110.971h39.169c5.523 0 10 4.477 10 10v90.971c0 5.523-4.477 10-10 10z" fill="#fff"/><g><g><path d="m127.643 226.357h31.193c2.762 0 5-2.239 5-5s-2.238-5-5-5h-31.193z" fill="#ff6c6c"/></g><g><path d="m127.643 245.127h16.193c2.762 0 5-2.239 5-5s-2.238-5-5-5h-16.193z" fill="#6c6cff"/></g><g><path d="m127.643 263.898h16.193c2.762 0 5-2.239 5-5s-2.238-5-5-5h-16.193z" fill="#6c6cff"/></g></g><path d="m176.812 197.471v-18.787c0-5.523-4.477-10-10-10h-39.169v28.787z" fill="#ff6c6c"/><g><path d="m291.867 318.269h-47.172c-7.656 0-14.213-5.444-15.66-12.962-2.065-10.729-3.205-22.488-3.205-34.82s1.141-24.091 3.205-34.82c1.447-7.518 8.004-12.962 15.66-12.962h47.172c7.656 0 14.213 5.444 15.66 12.962 2.065 10.729 3.205 22.488 3.205 34.82s-1.141 24.091-3.205 34.82c-1.447 7.518-8.004 12.962-15.66 12.962z" fill="#ffe8dc"/><path d="m225.846 271.685c.043 6.973.443 13.76 1.176 20.272h82.518c.732-6.512 1.133-13.299 1.176-20.272z" fill="#ffd6bb"/><path d="m310.364 282.597h-84.16c-.25-3.97-.37-8.01-.37-12.12 0-4.1.12-8.14.37-12.1h84.16c.25 3.96.37 8 .37 12.1 0 4.11-.12 8.151-.37 12.12z" fill="#ff6c6c"/></g><g><path d="m365.49 465.32h-47.172c-7.656 0-14.213-5.444-15.66-12.962-2.065-10.729-3.205-22.488-3.205-34.82s1.141-24.091 3.205-34.82c1.447-7.518 8.004-12.962 15.66-12.962h47.172c7.656 0 14.213 5.444 15.66 12.962 2.065 10.729 3.205 22.488 3.205 34.82s-1.141 24.091-3.205 34.82c-1.447 7.518-8.004 12.962-15.66 12.962z" fill="#ffd6bb"/><path d="m353.23 369.76v8.89c0 7.65-5.45 14.21-12.97 15.66-10.72 2.06-22.48 3.2-34.82 3.2-1.66 0-3.32-.02-4.96-.06.54-5.09 1.26-10.01 2.18-14.73 1.44-7.52 8-12.96 15.66-12.96z" fill="#ffc599"/><path d="m299.605 424.853c.186 5.001.545 9.899 1.091 14.641h82.416c.546-4.742.905-9.64 1.091-14.641z" fill="#ffc599"/><path d="m383.987 429.648h-84.16c-.25-3.97-.37-8.01-.37-12.12 0-4.1.12-8.14.37-12.1h84.16c.25 3.96.37 8 .37 12.1 0 4.11-.12 8.15-.37 12.12z" fill="#ff6c6c"/></g><g><path d="m353.226 317.407v47.172c0 7.656-5.444 14.213-12.962 15.66-10.729 2.065-22.488 3.205-34.82 3.205s-24.091-1.141-34.82-3.205c-7.518-1.447-12.962-8.004-12.962-15.66v-47.172c0-7.656 5.444-14.213 12.962-15.66 10.729-2.065 22.488-3.205 34.82-3.205s24.091 1.141 34.82 3.205c7.518 1.447 12.962 8.005 12.962 15.66z" fill="#fff"/><path d="m317.555 298.91v84.16c-3.97.25-8.01.37-12.12.37-4.1 0-8.14-.12-12.1-.37v-84.16c3.96-.25 8-.37 12.1-.37 4.11 0 8.15.12 12.12.37z" fill="#ff9494"/></g><g><path d="m327.065 427.3-33.356 33.356c-5.413 5.413-13.9 6.201-20.239 1.908-9.046-6.126-18.168-13.635-26.888-22.355s-16.229-17.842-22.355-26.888c-4.293-6.339-3.506-14.825 1.908-20.239l33.356-33.356c5.413-5.413 13.9-6.201 20.239-1.908 9.046 6.126 18.168 13.635 26.888 22.355s16.229 17.842 22.355 26.888c4.292 6.34 3.505 14.826-1.908 20.239z" fill="#ffe8dc"/><path d="m308.344 381.952-59.984 59.984c4.786 4.662 9.676 8.965 14.604 12.874 19.418-19.418 38.835-38.836 58.253-58.253-3.908-4.928-8.211-9.819-12.873-14.605z" fill="#ffd6bb"/><path d="m283.71 360.6c-6 8.74-13.3 17.55-21.73 25.98-8.72 8.72-17.84 16.23-26.89 22.36-3.61 2.44-7.92 3.24-11.96 2.47-3-6.05-1.88-13.44 3.01-18.33l33.35-33.35c5.41-5.42 13.9-6.2 20.24-1.91 1.33.9 2.65 1.82 3.98 2.78z" fill="#ffd6bb"/><path d="m314.92 388.997-59.51 59.51c-2.984-2.63-5.926-5.402-8.832-8.309-2.899-2.899-5.671-5.841-8.294-8.818l59.51-59.51c2.977 2.623 5.919 5.395 8.818 8.294 2.906 2.907 5.678 5.849 8.308 8.833z" fill="#ff6c6c"/></g><g><path d="m165.662 456.713-33.356-33.356c-5.413-5.413-6.201-13.9-1.908-20.239 6.126-9.046 13.635-18.168 22.355-26.888s17.842-16.229 26.888-22.355c6.339-4.293 14.825-3.506 20.239 1.908l33.356 33.356c5.413 5.413 6.201 13.9 1.908 20.239-6.126 9.046-13.635 18.168-22.355 26.888s-17.842 16.229-26.888 22.355c-6.339 4.293-14.825 3.505-20.239-1.908z" fill="#ffd6bb"/><path d="m233.236 389.139-33.356-33.356c-5.413-5.414-13.9-6.201-20.239-1.908-9.046 6.126-18.168 13.635-26.888 22.355-4.997 4.997-9.569 10.128-13.737 15.299l58.474 58.474c5.171-4.168 10.302-8.741 15.299-13.737 8.72-8.72 16.229-17.842 22.355-26.888 4.293-6.339 3.506-14.825-1.908-20.239z" fill="#ffc599"/><path d="m203.966 444.569-59.51-59.51c2.63-2.984 5.402-5.926 8.309-8.832 2.899-2.899 5.841-5.671 8.818-8.294l59.51 59.51c-2.623 2.977-5.395 5.919-8.294 8.818-2.908 2.905-5.849 5.677-8.833 8.308z" fill="#ff6c6c"/></g><g><path d="m204.362 396.54-33.356-33.356c-5.413-5.413-6.201-13.9-1.908-20.239 6.126-9.046 13.635-18.168 22.355-26.888s17.842-16.229 26.888-22.355c6.339-4.293 14.825-3.506 20.239 1.908l33.356 33.356c5.413 5.413 6.201 13.9 1.908 20.239-6.126 9.046-13.635 18.168-22.355 26.888s-17.842 16.228-26.888 22.355c-6.339 4.293-14.825 3.505-20.239-1.908z" fill="#fff3ee"/><path d="m235.079 390.735c5.272-4.187 10.508-8.815 15.612-13.862-.399-.323-.783-.665-1.148-1.03-19.643-19.643-39.285-39.285-58.928-58.928-5.024 5.085-9.632 10.301-13.803 15.552 19.422 19.423 38.845 38.846 58.267 58.268z" fill="#ffe8dc"/><path d="m242.666 384.396-59.51-59.51c2.63-2.984 5.402-5.926 8.309-8.832 2.899-2.899 5.841-5.671 8.818-8.294l59.51 59.51c-2.623 2.977-5.395 5.919-8.294 8.818-2.908 2.906-5.849 5.677-8.833 8.308z" fill="#ff6c6c"/></g><g><path d="m253.662 399.282v47.172c0 7.656-5.444 14.213-12.962 15.66-10.729 2.065-22.488 3.205-34.82 3.205s-24.091-1.141-34.82-3.205c-7.518-1.447-12.962-8.004-12.962-15.66v-47.172c0-7.656 5.444-14.213 12.962-15.66 10.729-2.065 22.488-3.205 34.82-3.205s24.091 1.141 34.82 3.205c7.518 1.447 12.962 8.005 12.962 15.66z" fill="#fff"/><path d="m217.99 380.785v84.16c-3.97.25-8.01.37-12.12.37-4.1 0-8.14-.12-12.1-.37v-84.16c3.96-.25 8-.37 12.1-.37 4.11 0 8.15.12 12.12.37z" fill="#ff9494"/></g><path d="m374.256 131.76v-40.353c0-5.523-4.477-10-10-10h-216.512c-5.523 0-10 4.477-10 10v40.353z" fill="#b3b3ff"/><path d="m379.256 127.598v-36.191c0-8.271-6.729-15-15-15h-90.974v-11.972c0-9.529-7.753-17.282-17.282-17.282s-17.282 7.752-17.282 17.282v11.972h-90.974c-8.271 0-15 6.729-15 15v36.191c-5.87 2.037-10.102 7.608-10.102 14.162v161.037c0 2.761 2.238 5 5 5s5-2.239 5-5v-161.037c0-2.757 2.243-5 5-5 .017 0 .033-.005.051-.005.017 0 .033.005.051.005h182.262c2.762 0 5-2.239 5-5s-2.238-5-5-5h-177.262v-35.353c0-2.757 2.243-5 5-5h216.512c2.757 0 5 2.243 5 5v35.353h-20.149c-2.762 0-5 2.239-5 5s2.238 5 5 5h25.149c.017 0 .033-.005.051-.005.017 0 .033.005.051.005 2.757 0 5 2.243 5 5v313.56c0 2.757-2.243 5-5 5h-236.715c-2.757 0-5-2.243-5-5v-123.422c0-2.761-2.238-5-5-5s-5 2.239-5 5v123.422c0 8.271 6.729 15 15 15h236.715c8.271 0 15-6.729 15-15v-313.56c-.001-6.554-4.232-12.125-10.102-14.162zm-130.538-63.163c0-4.015 3.267-7.282 7.282-7.282s7.282 3.267 7.282 7.282v11.972h-14.564z" fill="#00c"/></g><g fill="#6c6cff"><g><path d="m428.033 351.6c-2.762 0-5-2.239-5-5v-.15c0-2.761 2.238-5 5-5s5 2.239 5 5v.15c0 2.761-2.238 5-5 5z"/><path d="m428.033 379.384c-2.762 0-5-2.239-5-5v-.15c0-2.761 2.238-5 5-5s5 2.239 5 5v.15c0 2.761-2.238 5-5 5z"/></g><g><path d="m416.063 358.509c-.846 0-1.702-.215-2.488-.667l-.13-.075c-2.394-1.376-3.218-4.433-1.841-6.827 1.377-2.393 4.431-3.218 6.827-1.841l.13.075c2.394 1.376 3.218 4.433 1.841 6.827-.925 1.608-2.608 2.508-4.339 2.508z"/><path d="m440.125 372.401c-.84 0-1.691-.212-2.474-.659l-.131-.075c-2.398-1.369-3.232-4.423-1.863-6.821 1.368-2.397 4.421-3.232 6.82-1.863l.131.075c2.398 1.369 3.232 4.423 1.863 6.821-.921 1.616-2.61 2.522-4.346 2.522z"/></g><g><path d="m415.942 372.401c-1.731 0-3.414-.9-4.339-2.508-1.377-2.394-.553-5.451 1.841-6.827l.13-.075c2.396-1.377 5.451-.552 6.827 1.841 1.377 2.394.553 5.451-1.841 6.827l-.13.075c-.785.452-1.642.667-2.488.667z"/><path d="m440.004 358.509c-1.736 0-3.425-.906-4.347-2.522-1.369-2.398-.535-5.452 1.863-6.821l.131-.075c2.397-1.368 5.453-.534 6.82 1.863 1.369 2.398.535 5.452-1.863 6.821l-.131.075c-.781.447-1.633.659-2.473.659z"/></g></g><g fill="#ff9d33"><g><path d="m71.031 151.774c-2.762 0-5-2.239-5-5v-.15c0-2.761 2.238-5 5-5s5 2.239 5 5v.15c0 2.762-2.238 5-5 5z"/><path d="m71.031 179.558c-2.762 0-5-2.239-5-5v-.15c0-2.761 2.238-5 5-5s5 2.239 5 5v.15c0 2.761-2.238 5-5 5z"/></g><g><path d="m59.061 158.684c-.851 0-1.712-.217-2.5-.674l-.13-.075c-2.39-1.384-3.206-4.442-1.822-6.833 1.383-2.389 4.445-3.205 6.832-1.822l.13.075c2.39 1.384 3.206 4.442 1.822 6.833-.927 1.6-2.607 2.496-4.332 2.496z"/><path d="m83.122 172.576c-.851 0-1.712-.217-2.5-.674l-.13-.075c-2.39-1.384-3.206-4.442-1.822-6.833 1.383-2.39 4.444-3.205 6.832-1.822l.13.075c2.39 1.384 3.206 4.442 1.822 6.833-.927 1.601-2.606 2.496-4.332 2.496z"/></g><g><path d="m58.94 172.576c-1.727 0-3.405-.895-4.332-2.496-1.384-2.39-.567-5.449 1.822-6.833l.13-.075c2.39-1.384 5.449-.567 6.832 1.822 1.384 2.39.567 5.449-1.822 6.833l-.13.075c-.788.456-1.65.674-2.5.674z"/><path d="m83.002 158.684c-1.727 0-3.405-.895-4.332-2.496-1.384-2.39-.567-5.449 1.822-6.833l.13-.075c2.391-1.384 5.449-.567 6.832 1.822 1.384 2.39.567 5.449-1.822 6.833l-.13.075c-.788.456-1.65.674-2.5.674z"/></g></g><g fill="#ff4d4d"><g><path d="m194.322 31.83c-2.762 0-5-2.239-5-5v-.15c0-2.761 2.238-5 5-5s5 2.239 5 5v.15c0 2.761-2.238 5-5 5z"/><path d="m194.322 59.614c-2.762 0-5-2.239-5-5v-.15c0-2.761 2.238-5 5-5s5 2.239 5 5v.15c0 2.761-2.238 5-5 5z"/></g><g><path d="m182.352 38.74c-.851 0-1.712-.217-2.5-.674l-.13-.075c-2.39-1.384-3.206-4.442-1.822-6.833 1.384-2.39 4.445-3.204 6.832-1.822l.13.075c2.39 1.384 3.206 4.442 1.822 6.833-.927 1.601-2.607 2.496-4.332 2.496z"/><path d="m206.413 52.632c-.851 0-1.712-.217-2.5-.674l-.13-.075c-2.39-1.384-3.206-4.442-1.822-6.833 1.384-2.389 4.444-3.204 6.832-1.822l.13.075c2.39 1.384 3.206 4.442 1.822 6.833-.927 1.601-2.606 2.496-4.332 2.496z"/></g><g><path d="m182.231 52.632c-1.727 0-3.405-.895-4.332-2.496-1.384-2.39-.567-5.449 1.822-6.833l.13-.075c2.39-1.385 5.449-.567 6.832 1.822 1.384 2.39.567 5.449-1.822 6.833l-.13.075c-.788.456-1.65.674-2.5.674z"/><path d="m206.293 38.74c-1.727 0-3.405-.895-4.332-2.496-1.384-2.39-.567-5.449 1.822-6.833l.13-.075c2.39-1.385 5.449-.567 6.832 1.822 1.384 2.39.567 5.449-1.822 6.833l-.13.075c-.788.456-1.65.674-2.5.674z"/></g></g><path d="m439.367 434.198c-2.762 0-5-2.239-5-5 0-3.492-2.842-6.333-6.334-6.333-2.762 0-5-2.239-5-5s2.238-5 5-5c3.492 0 6.334-2.841 6.334-6.333 0-2.761 2.238-5 5-5s5 2.239 5 5c0 3.492 2.841 6.333 6.333 6.333 2.762 0 5 2.239 5 5s-2.238 5-5 5c-3.492 0-6.333 2.841-6.333 6.333 0 2.761-2.238 5-5 5z" fill="#ff4d4d"/><path d="m95.586 127.917c-2.762 0-5-2.239-5-5 0-3.492-2.841-6.333-6.333-6.333-2.762 0-5-2.239-5-5s2.238-5 5-5c3.492 0 6.333-2.841 6.333-6.333 0-2.761 2.238-5 5-5s5 2.239 5 5c0 3.492 2.841 6.333 6.333 6.333 2.762 0 5 2.239 5 5s-2.238 5-5 5c-3.492 0-6.333 2.841-6.333 6.333 0 2.761-2.238 5-5 5z" fill="#6c6cff"/></g></g></svg>