<svg id="Capa_1" enable-background="new 0 0 512 512" height="512" viewBox="0 0 512 512" width="512" xmlns="http://www.w3.org/2000/svg" xmlns:xlink="http://www.w3.org/1999/xlink"><linearGradient id="SVGID_1_" gradientUnits="userSpaceOnUse" x1="-21.409" x2="490.399" y1="373.272" y2="77.779"><stop offset="0" stop-color="#fff" stop-opacity="0"/><stop offset=".2532" stop-color="#eef" stop-opacity=".403"/><stop offset=".629" stop-color="#d9d9ff"/></linearGradient><g><g><path d="m451.798 43.963c-160.556-97.869-410.51-8.611-439.594 61.949-38.908 94.394 26.578 110.528 38.743 187.874 9.761 62.061-51.182 121.495-16.394 176.282 37.883 59.663 163.465 44.681 211.198 16.447 87.376-51.683 43.309-112.012 84.684-187.299 39.407-71.707 116.244-42.625 160.961-99.99 42.5-54.521 14.31-122.402-39.598-155.263z" fill="url(#SVGID_1_)"/></g><g><g><g opacity=".1"><path d="m387.677 60.135h-215.383c-5.523 0-10 4.477-10 10v97.384c-8.693-3.912-18.326-6.106-28.477-6.106-38.38 0-69.494 31.113-69.494 69.494s31.113 69.494 69.494 69.494c10.151 0 19.784-2.195 28.477-6.106v191.695c0 5.523 4.477 10 10 10h215.384c5.523 0 10-4.477 10-10v-415.855c-.001-5.523-4.478-10-10.001-10z" fill="#2626bc"/><g><g><path d="m137.67 335.651h-18.583c-2.762 0-5-2.239-5-5s2.238-5 5-5h18.583c2.762 0 5 2.239 5 5s-2.238 5-5 5z" fill="#2626bc"/></g><g><path d="m137.67 354.033h-58.583c-2.762 0-5-2.239-5-5s2.238-5 5-5h58.583c2.762 0 5 2.239 5 5s-2.238 5-5 5z" fill="#2626bc"/></g><g><path d="m137.67 372.414h-58.583c-2.762 0-5-2.239-5-5s2.238-5 5-5h58.583c2.762 0 5 2.239 5 5s-2.238 5-5 5z" fill="#2626bc"/></g></g></g><g><path d="m387.677 470.99h-215.383c-5.523 0-10-4.477-10-10v-415.855c0-5.523 4.477-10 10-10h215.384c5.523 0 10 4.477 10 10v415.855c-.001 5.522-4.478 10-10.001 10z" fill="#fff"/><path d="m387.677 470.99h-215.383c-5.523 0-10-4.477-10-10v-415.855c0-5.523 4.477-10 10-10h215.384c5.523 0 10 4.477 10 10v415.855c-.001 5.522-4.478 10-10.001 10z" fill="#fff"/><g><g><path d="m346.155 388.918h-132.34c-2.762 0-5-2.239-5-5s2.238-5 5-5h132.34c2.762 0 5 2.239 5 5s-2.238 5-5 5z" fill="#ff4d4d"/></g><g><path d="m346.155 283.106h-132.34c-2.762 0-5-2.239-5-5s2.238-5 5-5h132.34c2.762 0 5 2.239 5 5s-2.238 5-5 5z" fill="#9494ff"/></g><g><path d="m373.142 443.328c-2.762 0-5-2.239-5-5v-5.129c0-2.761 2.238-5 5-5s5 2.239 5 5v5.129c0 2.762-2.238 5-5 5z" fill="#4d4dff"/></g><g><path d="m373.142 404.047c-2.762 0-5-2.239-5-5v-5.129c0-2.761 2.238-5 5-5s5 2.239 5 5v5.129c0 2.761-2.238 5-5 5z" fill="#4d4dff"/></g><g><path d="m373.142 364.765c-2.762 0-5-2.239-5-5v-5.129c0-2.761 2.238-5 5-5s5 2.239 5 5v5.129c0 2.761-2.238 5-5 5z" fill="#4d4dff"/></g><g><path d="m373.142 325.484c-2.762 0-5-2.239-5-5v-5.129c0-2.761 2.238-5 5-5s5 2.239 5 5v5.129c0 2.761-2.238 5-5 5z" fill="#4d4dff"/></g><g><path d="m373.142 286.202c-2.762 0-5-2.239-5-5v-5.129c0-2.761 2.238-5 5-5s5 2.239 5 5v5.129c0 2.761-2.238 5-5 5z" fill="#4d4dff"/></g><g><path d="m373.142 246.92c-2.762 0-5-2.239-5-5v-5.129c0-2.761 2.238-5 5-5s5 2.239 5 5v5.129c0 2.762-2.238 5-5 5z" fill="#4d4dff"/></g><g><path d="m373.142 207.639c-2.762 0-5-2.239-5-5v-5.129c0-2.761 2.238-5 5-5s5 2.239 5 5v5.129c0 2.761-2.238 5-5 5z" fill="#4d4dff"/></g><g><path d="m373.142 168.357c-2.762 0-5-2.239-5-5v-5.129c0-2.761 2.238-5 5-5s5 2.239 5 5v5.129c0 2.761-2.238 5-5 5z" fill="#4d4dff"/></g><g><path d="m373.142 129.076c-2.762 0-5-2.239-5-5v-5.129c0-2.761 2.238-5 5-5s5 2.239 5 5v5.129c0 2.761-2.238 5-5 5z" fill="#4d4dff"/></g><g><path d="m373.142 89.794c-2.762 0-5-2.239-5-5v-5.129c0-2.761 2.238-5 5-5s5 2.239 5 5v5.129c0 2.761-2.238 5-5 5z" fill="#4d4dff"/></g><g><path d="m186.064 440.822c-2.762 0-5-2.239-5-5v-.115c0-2.761 2.238-5 5-5s5 2.239 5 5v.115c0 2.761-2.238 5-5 5z" fill="#9494ff"/></g><g><path d="m186.064 401.54c-2.762 0-5-2.239-5-5v-.115c0-2.761 2.238-5 5-5s5 2.239 5 5v.115c0 2.761-2.238 5-5 5z" fill="#9494ff"/></g><g><path d="m186.064 362.258c-2.762 0-5-2.239-5-5v-.115c0-2.761 2.238-5 5-5s5 2.239 5 5v.115c0 2.762-2.238 5-5 5z" fill="#9494ff"/></g><g><path d="m186.064 322.977c-2.762 0-5-2.239-5-5v-.115c0-2.761 2.238-5 5-5s5 2.239 5 5v.115c0 2.761-2.238 5-5 5z" fill="#9494ff"/></g><g><path d="m186.064 283.695c-2.762 0-5-2.239-5-5v-.115c0-2.761 2.238-5 5-5s5 2.239 5 5v.115c0 2.761-2.238 5-5 5z" fill="#9494ff"/></g><g fill="#4d4dff"><path d="m295.228 71.904c2.762 0 5-2.239 5-5s-2.238-5-5-5h-30.484c-2.762 0-5 2.239-5 5v42.797c0 2.761 2.238 5 5 5h30.484c2.762 0 5-2.239 5-5s-2.238-5-5-5h-25.484v-11.398h15.355c2.762 0 5-2.239 5-5s-2.238-5-5-5h-15.355v-11.399z"/><path d="m257.649 134.99h-21.109c-2.762 0-5 2.239-5 5v29.637c0 2.761 2.238 5 5 5s5-2.239 5-5v-9.818h9.096c2.762 0 5-2.239 5-5s-2.238-5-5-5h-9.096v-4.819h16.109c2.762 0 5-2.239 5-5s-2.239-5-5-5z"/><path d="m316.023 134.99h-13.7c-2.762 0-5 2.239-5 5v29.637c0 2.761 2.238 5 5 5s5-2.239 5-5v-9.818h8.7c6.843 0 12.409-5.567 12.409-12.409 0-6.843-5.567-12.41-12.409-12.41zm0 14.818h-8.7v-4.819h8.7c1.328 0 2.409 1.081 2.409 2.41s-1.081 2.409-2.409 2.409z"/></g><g fill="#4d4dff"><path d="m240.26 217.097h-5.392c-2.761 0-5-2.239-5-5v-13.929c0-2.761 2.239-5 5-5h5.392c2.761 0 5 2.239 5 5v13.929c0 2.761-2.239 5-5 5z"/><path d="m282.681 217.097h-5.392c-2.761 0-5-2.239-5-5v-13.929c0-2.761 2.239-5 5-5h5.392c2.761 0 5 2.239 5 5v13.929c0 2.761-2.238 5-5 5z"/><path d="m325.103 217.097h-5.392c-2.761 0-5-2.239-5-5v-13.929c0-2.761 2.239-5 5-5h5.392c2.761 0 5 2.239 5 5v13.929c0 2.761-2.238 5-5 5z"/></g><g><g fill="#4d4dff"><path d="m236.638 251.378h-3.836c-1.964 0-3.557-1.592-3.557-3.557v-9.909c0-1.964 1.592-3.557 3.557-3.557h3.836c1.964 0 3.557 1.592 3.557 3.557v9.909c0 1.965-1.593 3.557-3.557 3.557z"/><path d="m266.815 251.378h-3.836c-1.964 0-3.557-1.592-3.557-3.557v-9.909c0-1.964 1.592-3.557 3.557-3.557h3.836c1.964 0 3.557 1.592 3.557 3.557v9.909c0 1.965-1.593 3.557-3.557 3.557z"/><path d="m296.992 251.378h-3.836c-1.964 0-3.557-1.592-3.557-3.557v-9.909c0-1.964 1.592-3.557 3.557-3.557h3.836c1.964 0 3.557 1.592 3.557 3.557v9.909c-.001 1.965-1.593 3.557-3.557 3.557z"/></g><g><path d="m327.169 251.378h-3.836c-1.964 0-3.557-1.592-3.557-3.557v-9.909c0-1.964 1.592-3.557 3.557-3.557h3.836c1.964 0 3.557 1.592 3.557 3.557v9.909c-.001 1.965-1.593 3.557-3.557 3.557z" fill="#4d4dff"/></g></g><g fill="#4d4dff"><g><g><path d="m230.135 322.621h-3.347c-1.657 0-3-1.343-3-3v-8.532c0-1.657 1.343-3 3-3h3.347c1.657 0 3 1.343 3 3v8.532c0 1.656-1.343 3-3 3z"/><path d="m255.897 322.621h-3.347c-1.657 0-3-1.343-3-3v-8.532c0-1.657 1.343-3 3-3h3.347c1.657 0 3 1.343 3 3v8.532c0 1.656-1.343 3-3 3z"/><path d="m281.659 322.621h-3.347c-1.657 0-3-1.343-3-3v-8.532c0-1.657 1.343-3 3-3h3.347c1.657 0 3 1.343 3 3v8.532c0 1.656-1.343 3-3 3z"/></g><g><path d="m307.421 322.621h-3.347c-1.657 0-3-1.343-3-3v-8.532c0-1.657 1.343-3 3-3h3.347c1.657 0 3 1.343 3 3v8.532c0 1.656-1.343 3-3 3z"/><path d="m333.183 322.621h-3.347c-1.657 0-3-1.343-3-3v-8.532c0-1.657 1.343-3 3-3h3.347c1.657 0 3 1.343 3 3v8.532c0 1.656-1.343 3-3 3z"/></g></g><g><g><path d="m238.48 352.215h-2.787c-1.38 0-2.498-1.118-2.498-2.498v-7.104c0-1.38 1.118-2.498 2.498-2.498h2.787c1.38 0 2.498 1.118 2.498 2.498v7.104c0 1.379-1.119 2.498-2.498 2.498z"/><path d="m259.929 352.215h-2.787c-1.38 0-2.498-1.118-2.498-2.498v-7.104c0-1.38 1.118-2.498 2.498-2.498h2.787c1.38 0 2.498 1.118 2.498 2.498v7.104c0 1.379-1.118 2.498-2.498 2.498z"/><path d="m281.379 352.215h-2.787c-1.38 0-2.498-1.118-2.498-2.498v-7.104c0-1.38 1.118-2.498 2.498-2.498h2.787c1.38 0 2.498 1.118 2.498 2.498v7.104c0 1.379-1.119 2.498-2.498 2.498z"/></g><g><path d="m302.829 352.215h-2.787c-1.38 0-2.498-1.118-2.498-2.498v-7.104c0-1.38 1.118-2.498 2.498-2.498h2.787c1.379 0 2.498 1.118 2.498 2.498v7.104c-.001 1.379-1.119 2.498-2.498 2.498z"/><path d="m324.278 352.215h-2.787c-1.38 0-2.498-1.118-2.498-2.498v-7.104c0-1.38 1.118-2.498 2.498-2.498h2.787c1.38 0 2.498 1.118 2.498 2.498v7.104c0 1.379-1.118 2.498-2.498 2.498z"/></g></g><g><g><path d="m238.48 414.941h-2.787c-1.38 0-2.498-1.118-2.498-2.498v-7.104c0-1.379 1.118-2.498 2.498-2.498h2.787c1.38 0 2.498 1.118 2.498 2.498v7.104c0 1.38-1.119 2.498-2.498 2.498z"/><path d="m259.929 414.941h-2.787c-1.38 0-2.498-1.118-2.498-2.498v-7.104c0-1.379 1.118-2.498 2.498-2.498h2.787c1.38 0 2.498 1.118 2.498 2.498v7.104c0 1.38-1.118 2.498-2.498 2.498z"/><path d="m281.379 414.941h-2.787c-1.38 0-2.498-1.118-2.498-2.498v-7.104c0-1.379 1.118-2.498 2.498-2.498h2.787c1.38 0 2.498 1.118 2.498 2.498v7.104c0 1.38-1.119 2.498-2.498 2.498z"/></g><g><path d="m302.829 414.941h-2.787c-1.38 0-2.498-1.118-2.498-2.498v-7.104c0-1.379 1.118-2.498 2.498-2.498h2.787c1.379 0 2.498 1.118 2.498 2.498v7.104c-.001 1.38-1.119 2.498-2.498 2.498z"/><path d="m324.278 414.941h-2.787c-1.38 0-2.498-1.118-2.498-2.498v-7.104c0-1.379 1.118-2.498 2.498-2.498h2.787c1.38 0 2.498 1.118 2.498 2.498v7.104c0 1.38-1.118 2.498-2.498 2.498z"/></g></g></g><g fill="#ff6c6c"><g><path d="m238.48 441.814h-2.787c-1.38 0-2.498-1.118-2.498-2.498v-7.104c0-1.38 1.118-2.498 2.498-2.498h2.787c1.38 0 2.498 1.118 2.498 2.498v7.104c0 1.379-1.119 2.498-2.498 2.498z"/><path d="m259.929 441.814h-2.787c-1.38 0-2.498-1.118-2.498-2.498v-7.104c0-1.38 1.118-2.498 2.498-2.498h2.787c1.38 0 2.498 1.118 2.498 2.498v7.104c0 1.379-1.118 2.498-2.498 2.498z"/><path d="m281.379 441.814h-2.787c-1.38 0-2.498-1.118-2.498-2.498v-7.104c0-1.38 1.118-2.498 2.498-2.498h2.787c1.38 0 2.498 1.118 2.498 2.498v7.104c0 1.379-1.119 2.498-2.498 2.498z"/></g><g><path d="m302.829 441.814h-2.787c-1.38 0-2.498-1.118-2.498-2.498v-7.104c0-1.38 1.118-2.498 2.498-2.498h2.787c1.379 0 2.498 1.118 2.498 2.498v7.104c-.001 1.379-1.119 2.498-2.498 2.498z"/><path d="m324.278 441.814h-2.787c-1.38 0-2.498-1.118-2.498-2.498v-7.104c0-1.38 1.118-2.498 2.498-2.498h2.787c1.38 0 2.498 1.118 2.498 2.498v7.104c0 1.379-1.118 2.498-2.498 2.498z"/></g></g></g></g><g><g><circle cx="133.816" cy="205.907" fill="#ff4d4d" r="69.494"/><path d="m166.153 191.266h-17.695v-17.696c0-5.523-4.477-10-10-10h-9.282c-5.523 0-10 4.477-10 10v17.695h-17.696c-5.523 0-10 4.477-10 10v9.282c0 5.523 4.477 10 10 10h17.695v17.695c0 5.523 4.477 10 10 10h9.282c5.523 0 10-4.477 10-10v-17.695h17.695c5.523 0 10-4.477 10-10v-9.282c.001-5.522-4.476-9.999-9.999-9.999z" fill="#fff"/></g><g fill="#00c"><path d="m387.678 30.135h-215.385c-8.271 0-15 6.729-15 15v90.084c-2.617-.871-5.295-1.617-8.041-2.195-2.7-.567-5.354 1.159-5.924 3.861-.569 2.702 1.159 5.354 3.861 5.924 29.621 6.245 51.121 32.782 51.121 63.098 0 35.562-28.932 64.494-64.494 64.494s-64.494-28.932-64.494-64.494c0-30.178 21.386-56.688 50.85-63.035 2.699-.581 4.417-3.241 3.835-5.94-.581-2.699-3.244-4.419-5.94-3.835-34.039 7.332-58.744 37.953-58.744 72.81 0 41.076 33.418 74.494 74.494 74.494s74.494-33.417 74.494-74.494c0-28.495-16.45-54.098-41.018-66.534v-94.238c0-2.757 2.243-5 5-5h215.385c2.757 0 5 2.243 5 5v415.855c0 2.757-2.243 5-5 5h-215.385c-2.757 0-5-2.243-5-5v-163.334c0-2.761-2.238-5-5-5s-5 2.239-5 5v163.334c0 8.271 6.729 15 15 15h215.385c8.271 0 15-6.729 15-15v-415.855c0-8.271-6.729-15-15-15z"/><path d="m137.67 300.651h-18.583c-2.762 0-5 2.239-5 5s2.238 5 5 5h18.583c2.762 0 5-2.239 5-5s-2.238-5-5-5z"/><path d="m137.67 319.033h-58.583c-2.762 0-5 2.239-5 5s2.238 5 5 5h58.583c2.762 0 5-2.239 5-5s-2.238-5-5-5z"/><path d="m137.67 337.414h-58.583c-2.762 0-5 2.239-5 5s2.238 5 5 5h58.583c2.762 0 5-2.239 5-5s-2.238-5-5-5z"/></g></g></g><g fill="#6c6cff"><g><path d="m441.061 193.822c-2.762 0-5-2.239-5-5v-.15c0-2.761 2.238-5 5-5s5 2.239 5 5v.15c0 2.761-2.239 5-5 5z"/><path d="m441.061 221.606c-2.762 0-5-2.239-5-5v-.15c0-2.761 2.238-5 5-5s5 2.239 5 5v.15c0 2.761-2.239 5-5 5z"/></g><g><path d="m429.09 200.731c-.851 0-1.712-.217-2.5-.674l-.13-.075c-2.39-1.384-3.206-4.442-1.822-6.833 1.384-2.389 4.445-3.204 6.832-1.822l.13.075c2.39 1.384 3.206 4.442 1.822 6.833-.927 1.601-2.607 2.496-4.332 2.496z"/><path d="m453.151 214.624c-.851 0-1.712-.217-2.5-.674l-.13-.075c-2.39-1.384-3.206-4.442-1.822-6.833s4.445-3.205 6.832-1.822l.13.075c2.39 1.384 3.206 4.442 1.822 6.833-.926 1.601-2.606 2.496-4.332 2.496z"/></g><g><path d="m428.97 214.624c-1.727 0-3.405-.895-4.332-2.496-1.384-2.39-.567-5.449 1.822-6.833l.13-.075c2.39-1.385 5.449-.567 6.832 1.822 1.384 2.39.567 5.449-1.822 6.833l-.13.075c-.788.456-1.651.674-2.5.674z"/><path d="m453.031 200.731c-1.727 0-3.405-.895-4.332-2.496-1.384-2.39-.567-5.449 1.822-6.833l.13-.075c2.39-1.385 5.449-.567 6.832 1.822 1.384 2.39.567 5.449-1.822 6.833l-.13.075c-.788.457-1.65.674-2.5.674z"/></g></g><g fill="#ff9d33"><g><path d="m435.43 254.728c-2.762 0-5-2.239-5-5v-.15c0-2.761 2.238-5 5-5s5 2.239 5 5v.15c0 2.761-2.239 5-5 5z"/><path d="m435.43 282.512c-2.762 0-5-2.239-5-5v-.15c0-2.761 2.238-5 5-5s5 2.239 5 5v.15c0 2.761-2.239 5-5 5z"/></g><g><path d="m423.459 261.637c-.851 0-1.712-.217-2.5-.674l-.13-.075c-2.39-1.384-3.206-4.442-1.822-6.833 1.383-2.39 4.445-3.205 6.832-1.822l.13.075c2.39 1.384 3.206 4.442 1.822 6.833-.927 1.601-2.606 2.496-4.332 2.496z"/><path d="m447.521 275.529c-.851 0-1.712-.217-2.5-.674l-.13-.075c-2.39-1.384-3.206-4.442-1.822-6.833 1.384-2.389 4.444-3.204 6.832-1.822l.13.075c2.39 1.384 3.206 4.442 1.822 6.833-.927 1.601-2.607 2.496-4.332 2.496z"/></g><g><path d="m423.339 275.529c-1.727 0-3.405-.895-4.332-2.496-1.384-2.39-.567-5.449 1.822-6.833l.13-.075c2.39-1.385 5.449-.567 6.832 1.822 1.384 2.39.567 5.449-1.822 6.833l-.13.075c-.788.457-1.651.674-2.5.674z"/><path d="m447.4 261.637c-1.727 0-3.405-.895-4.332-2.496-1.384-2.39-.567-5.449 1.822-6.833l.13-.075c2.39-1.385 5.449-.567 6.832 1.822 1.384 2.39.567 5.449-1.822 6.833l-.13.075c-.788.457-1.65.674-2.5.674z"/></g></g><path d="m128.379 104.636c-2.762 0-5-2.239-5-5 0-3.492-2.842-6.333-6.334-6.333-2.762 0-5-2.239-5-5s2.238-5 5-5c3.492 0 6.334-2.841 6.334-6.333 0-2.761 2.238-5 5-5s5 2.239 5 5c0 3.492 2.841 6.333 6.333 6.333 2.762 0 5 2.239 5 5s-2.238 5-5 5c-3.492 0-6.333 2.841-6.333 6.333 0 2.761-2.238 5-5 5z" fill="#ff4d4d"/><path d="m441.061 342.137c-2.762 0-5-2.239-5-5 0-3.492-2.841-6.333-6.333-6.333-2.762 0-5-2.239-5-5s2.238-5 5-5c3.492 0 6.333-2.841 6.333-6.333 0-2.761 2.238-5 5-5s5 2.239 5 5c0 3.492 2.842 6.333 6.334 6.333 2.762 0 5 2.239 5 5s-2.238 5-5 5c-3.492 0-6.334 2.841-6.334 6.333 0 2.761-2.239 5-5 5z" fill="#6c6cff"/><path d="m117.045 431.135c-2.762 0-5-2.239-5-5 0-3.492-2.841-6.333-6.333-6.333-2.762 0-5-2.239-5-5s2.238-5 5-5c3.492 0 6.333-2.841 6.333-6.333 0-2.761 2.238-5 5-5s5 2.239 5 5c0 3.492 2.842 6.333 6.334 6.333 2.762 0 5 2.239 5 5s-2.238 5-5 5c-3.492 0-6.334 2.841-6.334 6.333 0 2.761-2.238 5-5 5z" fill="#ff9d33"/></g></g></svg>