<svg id="Capa_1" enable-background="new 0 0 512 512" height="512" viewBox="0 0 512 512" width="512" xmlns="http://www.w3.org/2000/svg"><g id="XMLID_938_"><path id="XMLID_1163_" d="m86 246h340v212h-340z" fill="#33d6f5"/><path id="XMLID_1231_" d="m256 458v-129l-56.667-83-56.666 83v129z" fill="#c193dc"/><path id="XMLID_718_" d="m369.333 458v-129l-56.666-83-56.667 83v129z" fill="#ff7d97"/><path id="XMLID_721_" d="m369.334 329v129h56.666v-212z" fill="#d5ea79"/><path id="XMLID_1162_" d="m426 502h-340c-12.15 0-22-9.85-22-22 0-12.15 9.85-22 22-22h340c12.15 0 22 9.85 22 22 0 12.151-9.85 22-22 22z" fill="#fff3da"/><path id="XMLID_1161_" d="m426 246h-340c-12.15 0-22-9.85-22-22 0-12.15 9.85-22 22-22h340c12.15 0 22 9.85 22 22 0 12.151-9.85 22-22 22z" fill="#fff3da"/><path id="XMLID_1045_" d="m199.333 246-56.666 83-56.667-83z" fill="#d5ea79"/><path id="XMLID_1044_" d="m312.667 246-56.667 83-56.667-83z" fill="#33d6f5"/><path id="XMLID_1043_" d="m426 246-56.667 83-56.666-83z" fill="#c193dc"/><ellipse id="XMLID_1002_" cx="343.224" cy="168.777" fill="#ffda8f" rx="33.224" ry="33.224" transform="matrix(.585 -.811 .811 .585 5.602 348.498)"/><ellipse id="XMLID_983_" cx="168.777" cy="168.777" fill="#ffda8f" rx="33.224" ry="33.224" transform="matrix(.791 -.612 .612 .791 -68.008 138.707)"/><g id="XMLID_589_"><path id="XMLID_666_" d="m509.071 2.929c-3.905-3.905-10.237-3.905-14.143 0l-129.053 129.054c-6.591-4.073-14.35-6.43-22.651-6.43-23.833 0-43.224 19.39-43.224 43.224 0 8.544 2.502 16.51 6.798 23.224h-101.595c4.295-6.713 6.798-14.679 6.798-23.224 0-23.833-19.39-43.224-43.224-43.224-8.301 0-16.06 2.357-22.651 6.43l-129.055-129.054c-3.905-3.905-10.237-3.905-14.143 0-3.905 3.905-3.905 10.237 0 14.143l129.054 129.054c-4.073 6.592-6.43 14.35-6.43 22.651 0 8.544 2.502 16.51 6.798 23.224h-46.35c-17.645 0-32 14.355-32 32 0 14.153 9.239 26.182 22 30.391v195.218c-12.761 4.21-22 16.238-22 30.391 0 17.645 14.355 32 32 32h340c17.645 0 32-14.355 32-32 0-14.153-9.239-26.181-22-30.391v-195.219c12.761-4.21 22-16.238 22-30.391 0-17.645-14.355-32-32-32h-46.35c4.295-6.713 6.798-14.679 6.798-23.224 0-8.301-2.357-16.059-6.43-22.651l129.053-129.053c3.905-3.906 3.905-10.238 0-14.143zm-363.518 165.848c0-12.806 10.418-23.224 23.224-23.224s23.224 10.418 23.224 23.224c-.001 12.805-10.419 23.223-23.224 23.223-12.806 0-23.224-10.418-23.224-23.223zm233.781 279.223v-115.911l36.666-53.706v169.617zm-10-136.735-37.732-55.265h75.462zm-113.334 0-37.731-55.265h75.462zm-160 136.735v-169.617l36.666 53.706v115.911zm46.667-136.735-37.731-55.265h75.462zm283.333 180.735h-340c-6.617 0-12-5.383-12-12s5.383-12 12-12h125c5.523 0 10-4.477 10-10s-4.477-10-10-10h-58.334v-115.911l46.667-68.353 46.667 68.353v80.911c0 5.523 4.477 10 10 10s10-4.477 10-10v-80.912l46.667-68.353 46.667 68.353v115.912h-58.334c-5.523 0-10 4.477-10 10s4.477 10 10 10h125c6.617 0 12 5.383 12 12s-5.383 12-12 12zm12-268c0 6.617-5.383 12-12 12h-340c-6.617 0-12-5.383-12-12s5.383-12 12-12h340c6.617 0 12 5.384 12 12zm-118-55.223c0-12.806 10.418-23.224 23.224-23.224s23.224 10.418 23.224 23.224-10.418 23.224-23.224 23.224c-12.806-.001-23.224-10.419-23.224-23.224z"/><path id="XMLID_725_" d="m256 448c-2.63 0-5.21 1.07-7.07 2.93s-2.93 4.44-2.93 7.07 1.07 5.21 2.93 7.07 4.44 2.93 7.07 2.93 5.21-1.07 7.07-2.93 2.93-4.44 2.93-7.07-1.07-5.21-2.93-7.07-4.44-2.93-7.07-2.93z"/></g></g></svg>